<svg xmlns="http://www.w3.org/2000/svg" width="298" height="51" viewBox="0 0 298 51" fill="none"><path d="M84.0477 23.5827H81.2373V20.3195H77.8956V31.4699H79.6474V34.2744H72.7343V31.4699H74.4861V20.3158H71.1444V23.5789H68.334V17.4887H84.0477V23.5827Z" fill="#110045"></path><path d="M96.8302 29.1241L96.6004 29.3308H88.2594C88.5344 30.8271 89.5026 31.6993 91.0472 31.6993C92.2227 31.6993 93.0289 31.1241 93.2587 30.5038H96.5778C96.3253 32.4587 94.3437 34.5038 91.0472 34.5038C86.922 34.5038 84.8047 31.7444 84.8047 28.203C84.8047 24.7557 87.1781 22.0865 91.0472 22.0865C93.8125 22.0865 97.4066 24.0639 96.8302 29.1241ZM93.5601 27.2143C93.2625 25.3308 91.8535 24.8459 91.0472 24.8459C89.7324 24.8459 88.6286 25.7181 88.282 27.2143H93.5601Z" fill="#110045"></path><path d="M111.828 31.4699V34.2745H107.59V33.2181C106.761 33.9324 105.518 34.5038 103.694 34.5038C100.884 34.5038 99.1094 33.1241 99.1094 31.1466C99.1094 29.0075 100.974 27.6993 103.924 27.6993C104.983 27.6993 105.928 27.7669 107.126 28.1128V27.5827C107.126 26.0414 106.32 24.9399 104.73 24.9399C103.717 24.9399 102.888 25.2857 102.425 25.6278C102.541 25.7895 102.609 26.0188 102.609 26.2256C102.609 26.9399 102.078 27.6053 101.087 27.6053C100.213 27.6053 99.5652 27.0075 99.4296 26.1805C99.083 24.0188 100.79 22.0865 104.911 22.0865C108.645 22.0865 110.347 24.3609 110.347 27.7406V31.4662H111.828V31.4699ZM107.13 30.9173V30.2745C106.162 30.0226 105.194 29.9511 104.365 29.9511C103.076 29.9511 102.338 30.4098 102.338 31.0075C102.338 31.6053 103.054 31.9963 104.365 31.9963C105.469 31.9963 106.689 31.4925 107.13 30.9173Z" fill="#110045"></path><path d="M122.034 26.8459C122.034 26.4098 122.128 25.9962 122.426 25.6955C121.944 25.282 121.273 24.9361 120.098 24.9361C118.368 24.9361 117.103 26.1541 117.103 28.2932C117.103 30.4549 118.301 31.6504 120.26 31.6504C121.318 31.6504 122.358 31.1692 122.61 30.3383L125.606 30.3158C125.376 31.9474 123.808 34.5 120.214 34.5C116.112 34.5 113.738 31.7406 113.738 28.1992C113.738 24.7519 116.018 22.0827 120.214 22.0827C123.97 22.0827 125.79 24.5414 125.606 26.7481C125.538 27.6466 124.867 28.4737 123.809 28.4737C122.908 28.4812 122.034 27.8835 122.034 26.8459Z" fill="#110045"></path><path d="M142.513 31.4699V34.2744H136.248V31.4699H137.721V28.0902C137.721 26.0226 137.167 24.9398 135.393 24.9398C133.803 24.9398 132.79 26.1128 132.515 27.0789V31.4699H133.988V34.2744H127.723V31.4699H129.196V19.1466H127.723V16.3421H132.055V23.7218C132.884 22.7556 134.127 22.0902 135.856 22.0902C139.405 22.0902 141.04 24.4586 141.04 27.5376V31.4699H142.513Z" fill="#110045"></path><path d="M151.13 31.4699V34.2744H144.865V31.4699H146.338V25.1241H144.865V22.3196H149.657V31.4699H151.13ZM145.833 18.2932C145.833 17.2143 146.73 16.3158 147.86 16.3158C148.991 16.3158 149.91 17.2105 149.91 18.2932C149.91 19.4662 148.987 20.3872 147.86 20.3872C146.73 20.3872 145.833 19.4662 145.833 18.2932Z" fill="#110045"></path><path d="M168.131 31.4699V34.2744H161.934V31.4699H163.339V28.0902C163.339 25.7443 162.442 24.9398 160.988 24.9398C159.628 24.9398 158.66 25.8383 158.407 27.0789V31.4699H159.813V34.2744H153.615V31.4699H155.088V25.124H153.615V22.3195H157.854V23.6316C158.754 22.5977 159.975 22.0902 161.61 22.0902C164.699 22.0902 166.654 24.0225 166.654 27.218V31.4699H168.131Z" fill="#110045"></path><path d="M182.854 22.3195V33.9774C182.854 37.2895 180.251 39.312 176.495 39.312C172.878 39.312 170.919 37.9774 170.802 36.0225C170.734 34.9436 171.379 34.2068 172.554 34.2068C173.568 34.2068 174.05 35.0113 174.121 35.312C174.193 35.6128 174.167 35.9323 174.076 36.1391C174.558 36.4135 175.459 36.6466 176.495 36.6466C178.522 36.6466 179.791 35.7481 179.791 33.9812V32.9925C178.962 33.7519 177.787 34.2782 176.152 34.2782C172.418 34.2782 170.207 31.8646 170.207 28.2067C170.207 24.4361 172.351 22.0902 175.922 22.0902C177.535 22.0902 178.827 22.5714 179.769 23.4699V22.3195H182.854ZM179.305 29.2594V27.0752C179.098 25.8797 178.085 24.9361 176.563 24.9361C174.671 24.9361 173.568 26.0413 173.568 28.2932C173.568 30.3383 174.833 31.421 176.401 31.421C178.152 31.421 179.121 30.5489 179.305 29.2594Z" fill="#110045"></path><path d="M206.515 28.9173C206.032 32.297 203.083 34.5038 198.818 34.5038C193.747 34.5038 190.062 31.0075 190.062 25.8346C190.062 20.6842 193.724 17.2594 198.863 17.2594C203.542 17.2594 206.744 20.2256 206.466 23.9023C206.398 24.6165 205.957 25.1203 205.222 25.1203C204.488 25.1203 204.024 24.5677 204.024 23.9699C204.024 23.5789 204.164 23.1654 204.601 22.9812C204.669 20.8195 202.273 18.8421 198.863 18.8421C194.968 18.8421 191.882 21.3947 191.882 25.8759C191.882 30.3571 195.062 32.9098 198.818 32.9098C201.858 32.9098 204.209 31.5752 204.763 28.9098H206.515V28.9173Z" fill="#110045"></path><path d="M223.931 32.8233V34.2707H217.757V32.8233H219.9V27.7444C219.9 25.1918 218.68 23.6053 216.468 23.6053C214.37 23.6053 212.987 24.9173 212.46 26.4775V32.8233H214.603V34.2707H208.451V32.8233H210.73V17.7857H208.474V16.3384H212.252V24.3609C213.127 23.0264 214.558 22.0865 216.653 22.0865C219.832 22.0865 221.629 24.3158 221.629 27.4888V32.8233H223.931Z" fill="#110045"></path><path d="M238.096 32.8233V34.2707H234.686V32.8233C233.718 33.7669 232.245 34.5 230.241 34.5C227.43 34.5 225.539 33.1429 225.539 31.1203C225.539 29.0263 227.174 27.6504 230.331 27.6504C231.736 27.6504 233.349 27.9248 234.502 28.3647V27.2369C234.502 25.0075 233.096 23.6053 231.16 23.6053C229.408 23.6053 228.12 24.3196 227.705 25.0752C227.867 25.2143 228.003 25.3985 228.003 25.7406C228.003 26.2707 227.634 26.6391 227.057 26.6391C226.481 26.6391 226.134 26.1805 226.067 25.6955C225.814 24.0188 227.287 22.0865 231.228 22.0865C234.178 22.0865 236.205 23.9248 236.205 27.1918V32.8233H238.096ZM234.502 31.079V29.7669C233.488 29.376 231.876 29.079 230.516 29.079C228.466 29.079 227.246 29.7933 227.246 31.0564C227.246 32.2068 228.561 32.9887 230.516 32.9887C232.358 32.985 233.948 32.203 234.502 31.079Z" fill="#110045"></path><path d="M255.215 32.8233V34.2707H249.063V32.8233H251.32V27.7444C251.32 24.985 249.869 23.6053 247.703 23.6053C245.789 23.6053 244.294 24.8008 243.785 26.4775V32.8233H245.906V34.2707H239.754V32.8233H242.06V23.7632H239.803V22.3158H243.536V24.3384C244.505 22.891 245.978 22.0865 247.982 22.0865C251.045 22.0865 253.053 24.0639 253.053 27.376V32.8233H255.215Z" fill="#110045"></path><path d="M272.172 32.8233V34.2707H266.02V32.8233H268.277V27.7444C268.277 24.985 266.826 23.6053 264.66 23.6053C262.746 23.6053 261.251 24.8008 260.742 26.4775V32.8233H262.863V34.2707H256.711V32.8233H259.017V23.7632H256.76V22.3158H260.493V24.3384C261.462 22.891 262.935 22.0865 264.939 22.0865C268.002 22.0865 270.006 24.0639 270.006 27.376V32.8233H272.172Z" fill="#110045"></path><path d="M285.278 28.7106L285.139 28.8722H283.549L275.622 28.8497C275.829 31.4248 277.419 33.0113 279.815 33.0113C281.428 33.0113 282.72 32.4361 283.296 31.1504H285.026C284.449 33.1278 282.539 34.5075 279.819 34.5075C276.086 34.5075 273.852 31.9098 273.852 28.2557C273.852 24.6466 276.293 22.094 279.796 22.094C282.882 22.0865 285.76 24.4098 285.278 28.7106ZM275.671 27.4211H283.62C283.436 24.8459 281.707 23.5602 279.796 23.5602C277.721 23.5602 275.991 25.0527 275.671 27.4211Z" fill="#110045"></path><path d="M294.265 32.5263V34.0451C293.504 34.391 292.72 34.5038 291.937 34.5038C290 34.5038 288.689 33.1917 288.689 30.7556V17.7895H286.455V16.3421H290.418V30.7331C290.418 32.203 291.202 33.0338 292.332 32.985C292.905 32.9624 293.549 32.8722 294.265 32.5263Z" fill="#110045"></path><path d="M295.495 34.2744V32.985H295.104V32.8045H296.117V32.985H295.725V34.2744H295.495Z" fill="#110045"></path><path d="M296.201 34.2744L296.386 32.8045H296.559L297.007 33.9286L297.456 32.8045H297.629L297.814 34.2744H297.606L297.478 33.2105L297.056 34.2707H296.951L296.529 33.2105L296.401 34.2744H296.201Z" fill="#110045"></path><path d="M202.327 41.7105H201.495L199.701 48.0865H199.031L197.094 43.5827L195.15 48.0865H194.48L192.63 41.7105H191.76V41.109H194.412V41.7105H193.425L194.872 47.0639L196.808 42.5789H197.373L199.328 47.1203L200.756 41.7105H199.675V41.109H202.327V41.7105Z" fill="#110045"></path><path d="M205.333 47.485V48.0865H202.768V47.485H203.725V43.7181H202.786V43.1166H204.444V47.485H205.333ZM203.427 41.3948C203.427 41.0903 203.676 40.8422 204 40.8422C204.316 40.8422 204.576 41.0903 204.576 41.3948C204.576 41.7219 204.316 41.9775 204 41.9775C203.676 41.9775 203.427 41.7181 203.427 41.3948Z" fill="#110045"></path><path d="M207.518 43.7444V46.5263C207.518 47.2143 207.842 47.5489 208.438 47.5489C208.773 47.5489 209.146 47.4511 209.481 47.3008V47.9323C209.127 48.094 208.686 48.1805 208.302 48.1805C207.371 48.1805 206.799 47.6917 206.799 46.5752V43.7444H206.004V43.1128H206.799V41.9098H207.518V43.1128H209.511V43.7444H207.518Z" fill="#110045"></path><path d="M216.554 47.485V48.0865H213.988V47.485H214.877V45.3722C214.877 44.312 214.369 43.6504 213.449 43.6504C212.579 43.6504 212.003 44.1955 211.784 44.8459V47.485H212.673V48.0865H210.115V47.485H211.065V41.2331H210.127V40.6316H211.698V43.9699C212.063 43.4173 212.654 43.0226 213.529 43.0226C214.851 43.0226 215.597 43.9511 215.597 45.2707V47.4887H216.554V47.485Z" fill="#110045"></path><path d="M225.829 45.4586V48.0865H220.08V46.921H220.713V42.2744H220.08V41.109H222.762V42.2744H222.13V46.9098H224.62V45.4586H225.829Z" fill="#110045"></path><path d="M231.505 45.9436L231.407 46.0301H227.937C228.054 46.6504 228.453 47.015 229.098 47.015C229.587 47.015 229.923 46.7744 230.017 46.5188H231.396C231.29 47.3308 230.465 48.1805 229.098 48.1805C227.384 48.1805 226.502 47.0338 226.502 45.5602C226.502 44.1278 227.489 43.0188 229.098 43.0188C230.251 43.0188 231.746 43.8421 231.505 45.9436ZM230.145 45.1504C230.021 44.3647 229.437 44.1654 229.101 44.1654C228.555 44.1654 228.096 44.5301 227.952 45.1504H230.145Z" fill="#110045"></path><path d="M237.602 46.921V48.0864H235.839V47.6466C235.492 47.9436 234.976 48.1804 234.219 48.1804C233.051 48.1804 232.312 47.6052 232.312 46.7857C232.312 45.8985 233.089 45.3534 234.317 45.3534C234.758 45.3534 235.149 45.3834 235.647 45.5263V45.3083C235.647 44.6692 235.311 44.2067 234.648 44.2067C234.226 44.2067 233.883 44.3496 233.691 44.4925C233.74 44.5601 233.767 44.6541 233.767 44.7406C233.767 45.0376 233.548 45.312 233.134 45.312C232.768 45.312 232.501 45.0639 232.444 44.718C232.301 43.8195 233.009 43.015 234.724 43.015C236.276 43.015 236.984 43.9624 236.984 45.3684V46.9173H237.602V46.921ZM235.647 46.6917V46.4248C235.244 46.3195 234.84 46.2895 234.498 46.2895C233.963 46.2895 233.654 46.4812 233.654 46.7293C233.654 46.9774 233.951 47.1391 234.498 47.1391C234.957 47.1391 235.466 46.9285 235.647 46.6917Z" fill="#110045"></path><path d="M242.967 44.4812C242.918 44.8271 242.662 45.1579 242.153 45.1504C241.75 45.1391 241.482 44.8045 241.482 44.4624C241.482 44.3083 241.513 44.203 241.55 44.1466C241.494 44.109 241.377 44.109 241.253 44.109C240.804 44.109 240.401 44.4624 240.401 45.188V46.9173H241.109V48.0827H238.408V46.9173H239.022V44.2782H238.408V43.1128H240.115V43.8308C240.412 43.3609 240.902 43.0188 241.648 43.0188C242.669 43.0188 243.061 43.812 242.967 44.4812Z" fill="#110045"></path><path d="M249.692 46.921V48.0865H247.115V46.921H247.699V45.515C247.699 44.5413 247.326 44.2068 246.723 44.2068C246.158 44.2068 245.755 44.5789 245.649 45.0977V46.9248H246.233V48.0902H243.656V46.9248H244.27V44.2857H243.656V43.1203H245.419V43.6654C245.792 43.2368 246.301 43.0263 246.983 43.0263C248.268 43.0263 249.081 43.8308 249.081 45.1579V46.9248H249.692V46.921Z" fill="#110045"></path><path d="M255.39 45.9436L255.292 46.0301H251.822C251.939 46.6504 252.338 47.015 252.982 47.015C253.472 47.015 253.808 46.7744 253.902 46.5188H255.281C255.175 47.3308 254.35 48.1805 252.982 48.1805C251.268 48.1805 250.387 47.0338 250.387 45.5602C250.387 44.1278 251.374 43.0188 252.982 43.0188C254.135 43.0188 255.627 43.8421 255.39 45.9436ZM254.03 45.1504C253.905 44.3647 253.322 44.1654 252.986 44.1654C252.44 44.1654 251.98 44.5301 251.837 45.1504H254.03Z" fill="#110045"></path><path d="M260.869 44.4812C260.82 44.8271 260.564 45.1579 260.055 45.1504C259.652 45.1391 259.385 44.8045 259.385 44.4624C259.385 44.3083 259.415 44.203 259.453 44.1466C259.396 44.109 259.279 44.109 259.155 44.109C258.703 44.109 258.303 44.4624 258.303 45.188V46.9173H259.012V48.0827H256.311V46.9173H256.925V44.2782H256.311V43.1128H258.017V43.8308C258.315 43.3609 258.805 43.0188 259.55 43.0188C260.571 43.0188 260.967 43.812 260.869 44.4812Z" fill="#110045"></path><path d="M263.618 47.1128C264.24 47.1015 264.567 46.9587 264.567 46.6429C264.567 45.7331 261.538 46.6805 261.538 44.5489C261.538 43.7068 262.152 43.0188 263.731 43.0188C264.997 43.0188 265.848 43.688 265.829 44.4624C265.818 44.8835 265.505 45.1617 265.17 45.1617C264.748 45.1617 264.511 44.8947 264.511 44.5978C264.511 44.4361 264.541 44.3571 264.605 44.2744C264.537 44.1805 264.183 44.1015 263.735 44.1015C263.14 44.1015 262.872 44.2744 262.872 44.579C262.872 45.5451 265.901 44.6353 265.901 46.703C265.901 47.4399 265.366 48.1842 263.622 48.1842C262.394 48.1842 261.35 47.7256 261.388 46.7594C261.407 46.3384 261.629 46.0526 262.088 46.0526C262.454 46.0526 262.789 46.312 262.789 46.6466C262.789 46.7632 262.77 46.8271 262.733 46.9135C262.91 47.0338 263.14 47.1203 263.618 47.1128Z" fill="#110045"></path><path d="M275.173 45.7444V48.0865H269.424V46.9211H270.057V42.2745H269.424V41.1091H275.143V43.4512H273.937V42.2858H271.473V44.0264H273.869V45.2031H271.473V46.9136H273.964V45.7482H275.173V45.7444Z" fill="#110045"></path><path d="M282.041 46.9211V48.0865H280.165V47.6391C279.819 47.9624 279.333 48.1842 278.643 48.1842C277.061 48.1842 276.172 47.1805 276.172 45.5639C276.172 43.9963 277.065 43.0226 278.549 43.0226C279.171 43.0226 279.672 43.1843 280.052 43.5113V41.8008H279.438V40.6354H281.431V46.9249H282.041V46.9211ZM279.951 46.0978V45.094C279.864 44.5978 279.442 44.203 278.809 44.203C278.022 44.203 277.562 44.6617 277.562 45.5978C277.562 46.5451 278.089 46.9925 278.741 46.9925C279.472 46.9963 279.875 46.6316 279.951 46.0978Z" fill="#110045"></path><path d="M288.066 43.1128V47.9587C288.066 49.3346 286.985 50.1767 285.421 50.1767C283.918 50.1767 283.104 49.6241 283.055 48.8083C283.025 48.3609 283.296 48.0526 283.782 48.0526C284.204 48.0526 284.404 48.3872 284.434 48.5113C284.464 48.6353 284.453 48.7707 284.415 48.8571C284.615 48.9737 284.988 49.0677 285.421 49.0677C286.265 49.0677 286.793 48.6955 286.793 47.9587V47.5489C286.446 47.8647 285.96 48.0827 285.278 48.0827C283.726 48.0827 282.807 47.079 282.807 45.5602C282.807 43.9925 283.7 43.0188 285.184 43.0188C285.854 43.0188 286.389 43.2181 286.785 43.594V43.1165H288.066V43.1128ZM286.593 46.0038V45.094C286.506 44.5977 286.084 44.203 285.451 44.203C284.668 44.203 284.204 44.6617 284.204 45.5977C284.204 46.4474 284.732 46.8985 285.384 46.8985C286.111 46.9023 286.514 46.5376 286.593 46.0038Z" fill="#110045"></path><path d="M294.206 45.9436L294.108 46.0301H290.638C290.755 46.6504 291.155 47.015 291.799 47.015C292.289 47.015 292.624 46.7744 292.718 46.5188H294.097C293.991 47.3308 293.166 48.1805 291.799 48.1805C290.085 48.1805 289.203 47.0338 289.203 45.5602C289.203 44.1278 290.19 43.0188 291.799 43.0188C292.952 43.0188 294.447 43.8421 294.206 45.9436ZM292.846 45.1504C292.722 44.3647 292.138 44.1654 291.803 44.1654C291.256 44.1654 290.797 44.5301 290.654 45.1504H292.846Z" fill="#110045"></path><path d="M29.763 23.0714C28.452 20.2256 23.0157 17.1165 23.0044 17.0902C22.978 17.0376 22.0098 12.9173 22.0098 12.9173L24.6545 10.3421C29.7103 16.4662 29.7856 23.0639 29.763 23.0714Z" fill="url(#paint0_linear_8061_19457)"></path><path d="M7.66758 0.330796C8.62073 3.87215 14.3283 9.68418 14.317 9.70674C11.5178 8.83831 8.33064 8.26313 5.64449 8.40598C5.4825 8.4135 5.35817 8.37591 5.23762 8.26313C4.43517 7.5338 3.48578 7.05636 2.47613 6.70298C2.06171 6.56012 1.76409 6.33831 1.55688 5.95486C1.15377 5.20298 0.724293 4.46613 0.317415 3.71425C-0.0103472 3.13531 -0.183647 2.32704 0.321182 1.78568C2.1559 -0.218077 5.20371 -0.112813 7.66758 0.330796Z" fill="url(#paint1_linear_8061_19457)"></path><path d="M21.0076 11.8271C21.0189 11.8759 16.3059 10.218 16.2758 10.188C10.7679 4.52254 9.7168 0.59021 9.7168 0.59021C16.6789 1.90224 23.7089 9.22931 23.6599 9.2481C23.7465 9.21427 20.9813 11.8233 21.0076 11.8271Z" fill="url(#paint2_linear_8061_19457)"></path><path d="M6.15341 10.0301C10.9267 9.44359 20.6993 12.9586 20.6842 12.9323C20.6729 12.906 21.1476 15.2932 21.4603 16.5225C21.4603 16.5225 13.8502 14.1278 7.70934 14.8609C6.71475 14.9774 6.03663 14.2105 5.60714 13.4812C4.89511 12.1165 6.63564 11.9173 6.15341 10.0301Z" fill="url(#paint3_linear_8061_19457)"></path><path d="M29.5719 28.6616C30.0616 36.5639 27.3378 42.9661 20.5377 46.8458C19.6561 47.2819 18.2358 48.0488 17.294 47.6015C15.9603 46.9661 15.7418 44.8909 18.2772 43.7894C28.8975 39.1616 29.553 28.6616 29.5719 28.6616Z" fill="url(#paint4_linear_8061_19457)"></path><path d="M28.7576 26.5112C26.6365 30.1278 20.5108 35.8909 17.8887 35.8195C17.9226 35.8195 19.1432 30.6842 19.1432 30.6842C21.5581 28.7556 25.6156 26.733 28.7576 26.5112Z" fill="url(#paint5_linear_8061_19457)"></path><path d="M19.1917 16.9737C14.9007 18.0676 10.7302 19.8158 7.24533 22.5977C6.02093 21.6579 3.55706 18.0564 5.79865 17.1879C11.6306 14.9361 19.1879 16.9473 19.1917 16.9737Z" fill="url(#paint6_linear_8061_19457)"></path><path d="M29.0889 24.0376C24.3609 23.0188 19.5914 22.8045 15.6582 25.0564L18.4724 18.5451C18.4724 18.5451 19.3427 17.8722 21.4637 17.7744C21.4863 17.7744 27.16 20.4699 29.0889 24.0376Z" fill="url(#paint7_linear_8061_19457)"></path><path d="M28.8975 27.6954C28.8598 32.2105 24.241 39.3233 20.0517 41.312C20.2777 39.8458 20.2664 37.8458 19.0156 36.8421C23.1032 35.4736 26.6408 31.2481 28.8975 27.6954Z" fill="url(#paint8_linear_8061_19457)"></path><path d="M28.9227 25.3909C24.7899 25.7706 20.0543 28.3308 18.6152 29.4586C18.5925 29.4774 15.1567 27.2669 15.168 27.2857C21.7383 22.9624 28.9227 25.3684 28.9227 25.3909Z" fill="url(#paint9_linear_8061_19457)"></path><path d="M14.1374 28.3872C15.3166 28.9662 17.8898 30.5714 17.9237 30.5451C17.95 30.5225 16.6767 35.2669 16.6767 35.2669C16.6767 35.2669 10.9691 31.5225 14.1374 28.3872Z" fill="url(#paint10_linear_8061_19457)"></path><path d="M17.1431 18.639C15.8056 20.7857 14.9165 22.8082 14.0538 25.1841C13.8278 26.015 12.4338 26.2293 11.9441 25.7405C11.1266 25.1127 10.2337 24.624 9.2617 24.2857C8.82092 24.0601 8.35753 23.8608 8.80585 23.3571C11.1303 21.1541 14.2196 19.8608 17.1431 18.639Z" fill="url(#paint11_linear_8061_19457)"></path><path d="M36.047 23.0789C37.358 20.233 42.7944 17.124 42.8057 17.0977C42.832 17.045 43.8002 12.9247 43.8002 12.9247L41.1555 10.3495C36.0997 16.4698 36.0244 23.0676 36.047 23.0789Z" fill="url(#paint12_linear_8061_19457)"></path><path d="M58.1416 0.338288C57.1885 3.87964 51.4809 9.69167 51.4922 9.71423C54.2914 8.84581 57.4786 8.27062 60.1647 8.41347C60.3267 8.42099 60.451 8.3834 60.5716 8.27062C61.3741 7.5413 62.3234 7.06385 63.3331 6.71047C63.7475 6.56761 64.0451 6.34581 64.2523 5.96235C64.6554 5.21047 65.0849 4.47363 65.4918 3.72175C65.8196 3.1428 65.9929 2.33453 65.488 1.79318C63.6571 -0.214344 60.6093 -0.10908 58.1416 0.338288Z" fill="url(#paint13_linear_8061_19457)"></path><path d="M44.8066 11.8308C44.7953 11.8796 49.5083 10.2217 49.5384 10.1917C55.0463 4.52248 56.0974 0.590149 56.0974 0.590149C49.1353 1.90218 42.1054 9.22925 42.1543 9.24804C42.0677 9.21797 44.8292 11.827 44.8066 11.8308Z" fill="url(#paint14_linear_8061_19457)"></path><path d="M59.6565 10.0338C54.8832 9.44732 45.1144 12.9586 45.1257 12.936C45.137 12.9135 44.6623 15.2969 44.3496 16.5263C44.3496 16.5263 51.9597 14.1315 58.1006 14.8646C59.0951 14.9812 59.7733 14.2142 60.2028 13.4849C60.9148 12.1202 59.178 11.921 59.6565 10.0338Z" fill="url(#paint15_linear_8061_19457)"></path><path d="M36.2392 28.6653C35.7494 36.5676 38.4733 42.9699 45.2734 46.8496C46.1549 47.2856 47.5753 48.0526 48.5171 47.6052C49.8508 46.9699 50.0693 44.8947 47.5338 43.7932C36.9173 39.1653 36.258 28.6653 36.2392 28.6653Z" fill="url(#paint16_linear_8061_19457)"></path><path d="M37.0527 26.5187C39.1738 30.1353 45.2995 35.8984 47.9216 35.827C47.8877 35.827 46.6671 30.6917 46.6671 30.6917C44.2522 28.7593 40.1985 26.7368 37.0527 26.5187Z" fill="url(#paint17_linear_8061_19457)"></path><path d="M46.6211 16.9774C50.9121 18.0714 55.0826 19.8195 58.5675 22.6014C59.7919 21.6616 62.2557 18.0601 60.0141 17.1917C54.1785 14.9398 46.6211 16.9511 46.6211 16.9774Z" fill="url(#paint18_linear_8061_19457)"></path><path d="M36.7207 24.0413C41.4488 23.0225 46.2183 22.8082 50.1514 25.0601L47.3372 18.5488C47.3372 18.5488 46.4669 17.8759 44.3459 17.7781C44.3233 17.7781 38.6534 20.4774 36.7207 24.0413Z" fill="url(#paint19_linear_8061_19457)"></path><path d="M36.918 27.7029C36.9556 32.218 41.5745 39.3308 45.7638 41.3195C45.5377 39.8533 45.549 37.8533 46.7998 36.8496C42.7084 35.4774 39.1746 31.2518 36.918 27.7029Z" fill="url(#paint20_linear_8061_19457)"></path><path d="M36.8906 25.3947C41.0234 25.7744 45.759 28.3345 47.1982 29.4623C47.2208 29.4811 50.6566 27.2706 50.6453 27.2894C44.0713 22.9661 36.8869 25.3721 36.8906 25.3947Z" fill="url(#paint21_linear_8061_19457)"></path><path d="M51.6773 28.3909C50.4981 28.9699 47.9249 30.5751 47.891 30.5488C47.8647 30.5263 49.138 35.2706 49.138 35.2706C49.138 35.2706 54.8419 31.5263 51.6773 28.3909Z" fill="url(#paint22_linear_8061_19457)"></path><path d="M48.668 18.6428C50.0054 20.7894 50.8945 22.812 51.7572 25.1879C51.9833 26.0188 53.3772 26.2331 53.867 25.7443C54.6845 25.1165 55.5774 24.6278 56.5493 24.2894C56.9901 24.0639 57.4535 23.8646 57.0052 23.3609C54.6807 21.1579 51.5915 19.8646 48.668 18.6428Z" fill="url(#paint23_linear_8061_19457)"></path><defs><linearGradient id="paint0_linear_8061_19457" x1="22.0127" y1="16.7073" x2="29.7667" y2="16.7073" gradientUnits="userSpaceOnUse"><stop stop-color="#FF0000"></stop><stop offset="0.1571" stop-color="#FF1100"></stop><stop offset="0.4676" stop-color="#FF3C00"></stop><stop offset="0.898" stop-color="#FF8200"></stop><stop offset="1" stop-color="#FF9400"></stop></linearGradient><linearGradient id="paint1_linear_8061_19457" x1="-0.0279833" y1="4.75892" x2="14.3807" y2="4.94809" gradientUnits="userSpaceOnUse"><stop stop-color="#0B00B5"></stop><stop offset="0.0281" stop-color="#1102B4"></stop><stop offset="0.2295" stop-color="#370FAE"></stop><stop offset="0.4298" stop-color="#551AA9"></stop><stop offset="0.6265" stop-color="#6A21A5"></stop><stop offset="0.8178" stop-color="#7725A3"></stop><stop offset="0.9976" stop-color="#7B27A2"></stop></linearGradient><linearGradient id="paint2_linear_8061_19457" x1="9.71755" y1="6.20927" x2="23.6625" y2="6.20927" gradientUnits="userSpaceOnUse"><stop stop-color="#7B27A2"></stop><stop offset="0.1601" stop-color="#8B228E"></stop><stop offset="0.4875" stop-color="#B5165B"></stop><stop offset="0.9496" stop-color="#F70209"></stop><stop offset="1" stop-color="#FF0000"></stop></linearGradient><linearGradient id="paint3_linear_8061_19457" x1="5.46217" y1="13.5671" x2="21.3319" y2="12.9783" gradientUnits="userSpaceOnUse"><stop stop-color="#7B27A2"></stop><stop offset="0.1601" stop-color="#8B228E"></stop><stop offset="0.4875" stop-color="#B5165B"></stop><stop offset="0.9496" stop-color="#F70209"></stop><stop offset="1" stop-color="#FF0000"></stop></linearGradient><linearGradient id="paint4_linear_8061_19457" x1="16.1391" y1="38.3758" x2="29.8217" y2="38.0479" gradientUnits="userSpaceOnUse"><stop stop-color="#A8099F"></stop><stop offset="0.00744885" stop-color="#AB099A"></stop><stop offset="0.1013" stop-color="#C80664"></stop><stop offset="0.1887" stop-color="#E00339"></stop><stop offset="0.2668" stop-color="#F1011A"></stop><stop offset="0.3329" stop-color="#FB0007"></stop><stop offset="0.3791" stop-color="#FF0000"></stop><stop offset="0.4767" stop-color="#FF1100"></stop><stop offset="0.6694" stop-color="#FF3C00"></stop><stop offset="0.9367" stop-color="#FF8200"></stop><stop offset="1" stop-color="#FF9400"></stop></linearGradient><linearGradient id="paint5_linear_8061_19457" x1="17.8905" y1="31.1661" x2="28.7576" y2="31.1661" gradientUnits="userSpaceOnUse"><stop stop-color="#FF0000"></stop><stop offset="0.1571" stop-color="#FF1100"></stop><stop offset="0.4676" stop-color="#FF3C00"></stop><stop offset="0.898" stop-color="#FF8200"></stop><stop offset="1" stop-color="#FF9400"></stop></linearGradient><linearGradient id="paint6_linear_8061_19457" x1="4.97609" y1="19.6943" x2="19.3173" y2="18.5786" gradientUnits="userSpaceOnUse"><stop stop-color="#7B27A2"></stop><stop offset="0.1601" stop-color="#8B228E"></stop><stop offset="0.4875" stop-color="#B5165B"></stop><stop offset="0.9496" stop-color="#F70209"></stop><stop offset="1" stop-color="#FF0000"></stop></linearGradient><linearGradient id="paint7_linear_8061_19457" x1="15.6569" y1="21.4153" x2="29.0892" y2="21.4153" gradientUnits="userSpaceOnUse"><stop stop-color="#FF0000"></stop><stop offset="0.1571" stop-color="#FF1100"></stop><stop offset="0.4676" stop-color="#FF3C00"></stop><stop offset="0.898" stop-color="#FF8200"></stop><stop offset="1" stop-color="#FF9400"></stop></linearGradient><linearGradient id="paint8_linear_8061_19457" x1="18.9563" y1="34.661" x2="29.0891" y2="34.3715" gradientUnits="userSpaceOnUse"><stop stop-color="#FF0000"></stop><stop offset="0.1571" stop-color="#FF1100"></stop><stop offset="0.4676" stop-color="#FF3C00"></stop><stop offset="0.898" stop-color="#FF8200"></stop><stop offset="1" stop-color="#FF9400"></stop></linearGradient><linearGradient id="paint9_linear_8061_19457" x1="15.1915" y1="26.7723" x2="28.8222" y2="27.4356" gradientUnits="userSpaceOnUse"><stop stop-color="#FF0000"></stop><stop offset="0.1571" stop-color="#FF1100"></stop><stop offset="0.4676" stop-color="#FF3C00"></stop><stop offset="0.898" stop-color="#FF8200"></stop><stop offset="1" stop-color="#FF9400"></stop></linearGradient><linearGradient id="paint10_linear_8061_19457" x1="13.104" y1="31.6978" x2="17.8399" y2="31.9703" gradientUnits="userSpaceOnUse"><stop stop-color="#7B27A2"></stop><stop offset="0.1601" stop-color="#8B228E"></stop><stop offset="0.4875" stop-color="#B5165B"></stop><stop offset="0.9496" stop-color="#F70209"></stop><stop offset="1" stop-color="#FF0000"></stop></linearGradient><linearGradient id="paint11_linear_8061_19457" x1="8.57172" y1="22.6134" x2="17.3079" y2="22.2138" gradientUnits="userSpaceOnUse"><stop stop-color="#7B27A2"></stop><stop offset="0.1601" stop-color="#8B228E"></stop><stop offset="0.4875" stop-color="#B5165B"></stop><stop offset="0.9496" stop-color="#F70209"></stop><stop offset="1" stop-color="#FF0000"></stop></linearGradient><linearGradient id="paint12_linear_8061_19457" x1="43.7988" y1="16.7118" x2="36.0448" y2="16.7118" gradientUnits="userSpaceOnUse"><stop stop-color="#FF0000"></stop><stop offset="0.1571" stop-color="#FF1100"></stop><stop offset="0.4676" stop-color="#FF3C00"></stop><stop offset="0.898" stop-color="#FF8200"></stop><stop offset="1" stop-color="#FF9400"></stop></linearGradient><linearGradient id="paint13_linear_8061_19457" x1="65.7985" y1="4.89048" x2="51.3897" y2="5.07966" gradientUnits="userSpaceOnUse"><stop stop-color="#0B00B5"></stop><stop offset="0.0281" stop-color="#1102B4"></stop><stop offset="0.2295" stop-color="#370FAE"></stop><stop offset="0.4298" stop-color="#551AA9"></stop><stop offset="0.6265" stop-color="#6A21A5"></stop><stop offset="0.8178" stop-color="#7725A3"></stop><stop offset="0.9976" stop-color="#7B27A2"></stop></linearGradient><linearGradient id="paint14_linear_8061_19457" x1="56.0944" y1="6.21383" x2="42.1494" y2="6.21383" gradientUnits="userSpaceOnUse"><stop stop-color="#7B27A2"></stop><stop offset="0.1601" stop-color="#8B228E"></stop><stop offset="0.4875" stop-color="#B5165B"></stop><stop offset="0.9496" stop-color="#F70209"></stop><stop offset="1" stop-color="#FF0000"></stop></linearGradient><linearGradient id="paint15_linear_8061_19457" x1="60.3061" y1="13.6212" x2="44.4363" y2="13.0323" gradientUnits="userSpaceOnUse"><stop stop-color="#7B27A2"></stop><stop offset="0.1601" stop-color="#8B228E"></stop><stop offset="0.4875" stop-color="#B5165B"></stop><stop offset="0.9496" stop-color="#F70209"></stop><stop offset="1" stop-color="#FF0000"></stop></linearGradient><linearGradient id="paint16_linear_8061_19457" x1="49.6329" y1="38.5155" x2="35.9501" y2="38.1877" gradientUnits="userSpaceOnUse"><stop stop-color="#A8099F"></stop><stop offset="0.00744885" stop-color="#AB099A"></stop><stop offset="0.1013" stop-color="#C80664"></stop><stop offset="0.1887" stop-color="#E00339"></stop><stop offset="0.2668" stop-color="#F1011A"></stop><stop offset="0.3329" stop-color="#FB0007"></stop><stop offset="0.3791" stop-color="#FF0000"></stop><stop offset="0.4767" stop-color="#FF1100"></stop><stop offset="0.6694" stop-color="#FF3C00"></stop><stop offset="0.9367" stop-color="#FF8200"></stop><stop offset="1" stop-color="#FF9400"></stop></linearGradient><linearGradient id="paint17_linear_8061_19457" x1="47.9213" y1="31.1708" x2="37.0542" y2="31.1708" gradientUnits="userSpaceOnUse"><stop stop-color="#FF0000"></stop><stop offset="0.1571" stop-color="#FF1100"></stop><stop offset="0.4676" stop-color="#FF3C00"></stop><stop offset="0.898" stop-color="#FF8200"></stop><stop offset="1" stop-color="#FF9400"></stop></linearGradient><linearGradient id="paint18_linear_8061_19457" x1="60.8341" y1="19.7207" x2="46.4929" y2="18.605" gradientUnits="userSpaceOnUse"><stop stop-color="#7B27A2"></stop><stop offset="0.1601" stop-color="#8B228E"></stop><stop offset="0.4875" stop-color="#B5165B"></stop><stop offset="0.9496" stop-color="#F70209"></stop><stop offset="1" stop-color="#FF0000"></stop></linearGradient><linearGradient id="paint19_linear_8061_19457" x1="50.1542" y1="21.4199" x2="36.7221" y2="21.4199" gradientUnits="userSpaceOnUse"><stop stop-color="#FF0000"></stop><stop offset="0.1571" stop-color="#FF1100"></stop><stop offset="0.4676" stop-color="#FF3C00"></stop><stop offset="0.898" stop-color="#FF8200"></stop><stop offset="1" stop-color="#FF9400"></stop></linearGradient><linearGradient id="paint20_linear_8061_19457" x1="46.8744" y1="34.7089" x2="36.7415" y2="34.4194" gradientUnits="userSpaceOnUse"><stop stop-color="#FF0000"></stop><stop offset="0.1571" stop-color="#FF1100"></stop><stop offset="0.4676" stop-color="#FF3C00"></stop><stop offset="0.898" stop-color="#FF8200"></stop><stop offset="1" stop-color="#FF9400"></stop></linearGradient><linearGradient id="paint21_linear_8061_19457" x1="50.5542" y1="26.7493" x2="36.9235" y2="27.4125" gradientUnits="userSpaceOnUse"><stop stop-color="#FF0000"></stop><stop offset="0.1571" stop-color="#FF1100"></stop><stop offset="0.4676" stop-color="#FF3C00"></stop><stop offset="0.898" stop-color="#FF8200"></stop><stop offset="1" stop-color="#FF9400"></stop></linearGradient><linearGradient id="paint22_linear_8061_19457" x1="52.6334" y1="31.6112" x2="47.8975" y2="31.8838" gradientUnits="userSpaceOnUse"><stop stop-color="#7B27A2"></stop><stop offset="0.1601" stop-color="#8B228E"></stop><stop offset="0.4875" stop-color="#B5165B"></stop><stop offset="0.9496" stop-color="#F70209"></stop><stop offset="1" stop-color="#FF0000"></stop></linearGradient><linearGradient id="paint23_linear_8061_19457" x1="57.3546" y1="22.5547" x2="48.6184" y2="22.1551" gradientUnits="userSpaceOnUse"><stop stop-color="#7B27A2"></stop><stop offset="0.1601" stop-color="#8B228E"></stop><stop offset="0.4875" stop-color="#B5165B"></stop><stop offset="0.9496" stop-color="#F70209"></stop><stop offset="1" stop-color="#FF0000"></stop></linearGradient></defs></svg>